<?xml version="1.0" encoding="UTF-8"?>
<svg xmlns="http://www.w3.org/2000/svg" xmlns:xlink="http://www.w3.org/1999/xlink" width="128px" height="px" viewBox="0 0 128 115" version="1.1">
<g id="surface1">
<path style=" stroke:none;fill-rule:nonzero;fill:rgb(100%,100%,100%);fill-opacity:1;" d="M 0.378906 57.375 C 0.378906 66.984375 9.757812 75.949219 24.546875 81.007812 C 21.59375 95.875 24.019531 107.859375 32.113281 112.527344 C 40.4375 117.328125 52.835938 114.007812 64.605469 103.71875 C 76.074219 113.589844 87.667969 117.476562 95.757812 112.792969 C 104.070312 107.980469 106.601562 95.183594 103.566406 79.847656 C 118.96875 74.757812 127.585938 67.109375 127.585938 57.375 C 127.585938 47.992188 118.1875 39.871094 103.597656 34.847656 C 106.867188 18.882812 104.097656 7.1875 95.664062 2.328125 C 87.535156 -2.363281 75.808594 1.722656 64.167969 11.855469 C 52.058594 1.101562 40.445312 -2.179688 32.023438 2.695312 C 23.902344 7.398438 21.585938 19.601562 24.546875 34.742188 C 10.257812 39.726562 0.378906 48.027344 0.378906 57.375 Z M 0.378906 57.375 "/>
<path style=" stroke:none;fill-rule:nonzero;fill:rgb(32.54902%,75.686275%,87.058824%);fill-opacity:1;" d="M 100.507812 39.835938 C 99.304688 39.425781 98.09375 39.042969 96.871094 38.691406 C 97.074219 37.867188 97.261719 37.039062 97.433594 36.210938 C 100.1875 22.847656 98.386719 12.082031 92.238281 8.535156 C 86.347656 5.136719 76.707031 8.679688 66.972656 17.152344 C 66.015625 17.988281 65.074219 18.851562 64.160156 19.734375 C 63.546875 19.148438 62.921875 18.570312 62.289062 18.003906 C 52.085938 8.945312 41.859375 5.128906 35.71875 8.683594 C 29.832031 12.09375 28.089844 22.214844 30.566406 34.878906 C 30.8125 36.132812 31.089844 37.382812 31.402344 38.621094 C 29.953125 39.03125 28.558594 39.46875 27.21875 39.9375 C 15.261719 44.105469 7.621094 50.640625 7.621094 57.421875 C 7.621094 64.421875 15.820312 71.445312 28.28125 75.703125 C 29.289062 76.046875 30.308594 76.367188 31.335938 76.660156 C 31 77.996094 30.703125 79.339844 30.445312 80.691406 C 28.082031 93.136719 29.929688 103.019531 35.800781 106.40625 C 41.867188 109.902344 52.046875 106.308594 61.957031 97.644531 C 62.742188 96.960938 63.527344 96.234375 64.316406 95.472656 C 65.308594 96.429688 66.328125 97.355469 67.371094 98.257812 C 76.972656 106.519531 86.453125 109.855469 92.320312 106.460938 C 98.382812 102.953125 100.351562 92.335938 97.792969 79.421875 C 97.597656 78.433594 97.371094 77.425781 97.117188 76.402344 C 97.832031 76.191406 98.53125 75.972656 99.21875 75.746094 C 112.167969 71.453125 120.59375 64.515625 120.59375 57.421875 C 120.59375 50.617188 112.710938 44.039062 100.507812 39.835938 Z M 100.507812 39.835938 "/>
<path style=" stroke:none;fill-rule:nonzero;fill:rgb(100%,100%,100%);fill-opacity:1;" d="M 97.699219 71.164062 C 97.082031 71.367188 96.449219 71.566406 95.800781 71.757812 C 94.371094 67.230469 92.441406 62.417969 90.082031 57.445312 C 92.335938 52.589844 94.1875 47.839844 95.578125 43.339844 C 96.734375 43.675781 97.855469 44.027344 98.9375 44.402344 C 109.390625 48 115.769531 53.320312 115.769531 57.421875 C 115.769531 61.789062 108.882812 67.457031 97.699219 71.164062 Z M 93.058594 80.359375 C 94.191406 86.070312 94.351562 91.234375 93.601562 95.269531 C 92.929688 98.898438 91.578125 101.316406 89.902344 102.28125 C 86.34375 104.34375 78.730469 101.664062 70.519531 94.597656 C 69.578125 93.789062 68.628906 92.925781 67.675781 92.007812 C 70.859375 88.527344 74.042969 84.480469 77.148438 79.984375 C 82.609375 79.5 87.769531 78.707031 92.449219 77.625 C 92.675781 78.554688 92.882812 79.46875 93.058594 80.359375 Z M 46.136719 101.925781 C 42.65625 103.15625 39.886719 103.191406 38.214844 102.226562 C 34.648438 100.171875 33.167969 92.234375 35.1875 81.59375 C 35.429688 80.335938 35.703125 79.082031 36.011719 77.839844 C 40.640625 78.863281 45.761719 79.601562 51.238281 80.046875 C 54.363281 84.445312 57.636719 88.488281 60.933594 92.027344 C 60.234375 92.707031 59.515625 93.367188 58.78125 94.007812 C 54.398438 97.839844 50.007812 100.558594 46.136719 101.925781 Z M 29.839844 71.136719 C 24.332031 69.253906 19.78125 66.808594 16.664062 64.136719 C 13.863281 61.738281 12.445312 59.355469 12.445312 57.421875 C 12.445312 53.308594 18.582031 48.058594 28.808594 44.492188 C 30.09375 44.046875 31.390625 43.640625 32.699219 43.269531 C 34.113281 47.867188 35.964844 52.675781 38.203125 57.539062 C 35.9375 62.472656 34.054688 67.359375 32.628906 72.011719 C 31.691406 71.742188 30.761719 71.449219 29.839844 71.136719 Z M 35.304688 33.953125 C 33.179688 23.101562 34.589844 14.914062 38.136719 12.859375 C 41.917969 10.671875 50.273438 13.792969 59.082031 21.613281 C 59.648438 22.113281 60.210938 22.636719 60.777344 23.179688 C 57.496094 26.703125 54.253906 30.714844 51.15625 35.089844 C 45.839844 35.582031 40.753906 36.371094 36.078125 37.433594 C 35.792969 36.277344 35.53125 35.117188 35.304688 33.953125 Z M 84.035156 45.984375 C 82.929688 44.078125 81.785156 42.195312 80.597656 40.335938 C 84.203125 40.789062 87.65625 41.394531 90.898438 42.136719 C 89.925781 45.257812 88.714844 48.519531 87.285156 51.863281 C 86.242188 49.882812 85.15625 47.921875 84.035156 45.984375 Z M 64.160156 26.628906 C 66.386719 29.039062 68.617188 31.734375 70.808594 34.65625 C 66.363281 34.445312 61.90625 34.441406 57.457031 34.652344 C 59.652344 31.757812 61.902344 29.066406 64.160156 26.628906 Z M 44.160156 46.019531 C 43.054688 47.941406 41.988281 49.890625 40.972656 51.859375 C 39.566406 48.527344 38.363281 45.25 37.382812 42.085938 C 40.605469 41.363281 44.042969 40.773438 47.625 40.328125 C 46.425781 42.195312 45.269531 44.09375 44.160156 46.019531 Z M 47.726562 74.859375 C 44.027344 74.445312 40.539062 73.886719 37.316406 73.1875 C 38.3125 69.964844 39.542969 66.617188 40.976562 63.210938 C 42 65.183594 43.066406 67.132812 44.179688 69.058594 C 45.316406 71.019531 46.5 72.953125 47.726562 74.859375 Z M 64.296875 88.554688 C 62.007812 86.085938 59.726562 83.355469 57.5 80.417969 C 59.660156 80.503906 61.867188 80.546875 64.109375 80.546875 C 66.410156 80.546875 68.6875 80.496094 70.925781 80.394531 C 68.726562 83.386719 66.507812 86.121094 64.296875 88.554688 Z M 87.332031 63.039062 C 88.839844 66.480469 90.113281 69.808594 91.125 72.976562 C 87.847656 73.722656 84.3125 74.328125 80.585938 74.773438 C 81.78125 72.878906 82.9375 70.964844 84.054688 69.023438 C 85.191406 67.054688 86.28125 65.058594 87.332031 63.039062 Z M 79.875 66.613281 C 78.160156 69.585938 76.355469 72.503906 74.453125 75.359375 C 71.101562 75.597656 67.636719 75.722656 64.109375 75.722656 C 60.59375 75.722656 57.171875 75.613281 53.878906 75.398438 C 51.929688 72.550781 50.085938 69.628906 48.359375 66.640625 C 46.636719 63.667969 45.027344 60.632812 43.539062 57.535156 C 45.023438 54.441406 46.628906 51.402344 48.34375 48.429688 C 50.058594 45.453125 51.886719 42.546875 53.820312 39.710938 C 57.179688 39.453125 60.625 39.320312 64.109375 39.320312 C 67.605469 39.320312 71.054688 39.457031 74.414062 39.710938 C 76.332031 42.542969 78.144531 45.441406 79.859375 48.402344 C 81.578125 51.371094 83.203125 54.394531 84.726562 57.46875 C 83.21875 60.574219 81.601562 63.625 79.875 66.613281 Z M 89.828125 12.71875 C 93.613281 14.898438 95.082031 23.699219 92.707031 35.238281 C 92.550781 35.988281 92.382812 36.738281 92.199219 37.484375 C 87.511719 36.402344 82.421875 35.597656 77.09375 35.097656 C 73.988281 30.675781 70.773438 26.65625 67.542969 23.175781 C 68.390625 22.359375 69.257812 21.566406 70.140625 20.792969 C 78.480469 13.535156 86.277344 10.667969 89.828125 12.71875 Z M 89.828125 12.71875 "/>
<path style=" stroke:none;fill-rule:nonzero;fill:rgb(32.54902%,75.686275%,87.058824%);fill-opacity:1;" d="M 64.109375 47.332031 C 69.679688 47.332031 74.195312 51.847656 74.195312 57.421875 C 74.195312 62.992188 69.679688 67.511719 64.109375 67.511719 C 58.535156 67.511719 54.019531 62.992188 54.019531 57.421875 C 54.019531 51.847656 58.535156 47.332031 64.109375 47.332031 "/>
</g>
</svg>
