<?xml version="1.0" standalone="no"?>
<!DOCTYPE svg PUBLIC "-//W3C//DTD SVG 20010904//EN"
 "http://www.w3.org/TR/2001/REC-SVG-20010904/DTD/svg10.dtd">
<svg version="1.0" xmlns="http://www.w3.org/2000/svg"
 width="400.000000pt" height="400.000000pt" viewBox="0 0 400.000000 400.000000"
 preserveAspectRatio="xMidYMid meet">

<g transform="translate(0.000000,400.000000) scale(0.100000,-0.100000)"
fill="#000000" stroke="none">
<path d="M1240 3410 c-275 -59 -493 -240 -600 -496 -60 -144 -60 -148 -60
-914 0 -766 0 -770 60 -914 101 -242 302 -417 559 -488 68 -19 109 -22 379
-26 l302 -4 0 1431 0 1431 -277 -1 c-230 0 -293 -4 -363 -19z"/>
<path d="M2042 3088 c4 -327 5 -346 27 -413 95 -288 302 -486 596 -570 50 -15
118 -18 408 -22 l347 -5 0 274 c0 150 -5 310 -10 354 -44 347 -307 631 -653
704 -80 17 -133 20 -405 20 l-313 0 3 -342z"/>
<path d="M2779 1930 c-104 -13 -187 -37 -284 -85 -100 -50 -250 -168 -241
-191 3 -8 0 -13 -6 -11 -14 3 -79 -82 -117 -153 -16 -30 -42 -91 -58 -135
l-28 -80 -3 -342 -3 -343 318 0 c336 0 392 5 508 46 208 74 369 219 466 419
77 160 81 184 86 549 4 256 2 320 -8 327 -17 10 -542 9 -630 -1z"/>
</g>
</svg>
