<?xml version="1.0" encoding="UTF-8"?>
<svg xmlns="http://www.w3.org/2000/svg" xmlns:xlink="http://www.w3.org/1999/xlink" width="128px" height="px" viewBox="0 0 128 128" version="1.1">
<g id="surface1">
<path style=" stroke:none;fill-rule:nonzero;fill:rgb(89.019608%,30.980392%,14.901961%);fill-opacity:1;" d="M 17.75 115 L 7.5 0 L 120.25 0 L 110 115 L 63.75 128 "/>
<path style=" stroke:none;fill-rule:nonzero;fill:rgb(93.72549%,39.607843%,16.470588%);fill-opacity:1;" d="M 64 118 L 101.25 107.75 L 110 9.25 L 64 9.25 "/>
<path style=" stroke:none;fill-rule:nonzero;fill:rgb(92.156863%,92.156863%,92.156863%);fill-opacity:1;" d="M 64 52 L 45.25 52 L 44 37.5 L 64 37.5 L 64 23.5 L 28.5 23.5 L 32.25 66.25 L 64 66.25 Z M 63.75 88.75 L 48 84.5 L 47 73.25 L 33 73.25 L 34.75 95.5 L 63.75 103.5 Z M 63.75 88.75 "/>
<path style=" stroke:none;fill-rule:nonzero;fill:rgb(100%,100%,100%);fill-opacity:1;" d="M 63.75 52 L 63.75 66.25 L 81.25 66.25 L 79.5 84.5 L 63.75 88.75 L 63.75 103.5 L 92.75 95.5 L 96.75 52 Z M 63.75 23.5 L 63.75 37.5 L 98 37.5 L 99.25 23.5 Z M 63.75 23.5 "/>
</g>
</svg>
