<?xml version="1.0" encoding="UTF-8"?>
<svg xmlns="http://www.w3.org/2000/svg" xmlns:xlink="http://www.w3.org/1999/xlink" width="128px" height="px" viewBox="0 0 128 128" version="1.1">
<g id="surface1">
<rect x="0" y="0" width="128" height="128" style="fill:rgb(96.862745%,87.45098%,11.764706%);fill-opacity:1;stroke:none;"/>
<path style=" stroke:none;fill-rule:nonzero;fill:rgb(0%,0%,0%);fill-opacity:1;" d="M 33.65625 106.964844 L 43.449219 101.039062 C 45.339844 104.386719 47.058594 107.222656 51.183594 107.222656 C 55.136719 107.222656 57.628906 105.675781 57.628906 99.664062 L 57.628906 58.765625 L 69.65625 58.765625 L 69.65625 99.832031 C 69.65625 112.292969 62.355469 117.964844 51.699219 117.964844 C 42.078125 117.964844 36.492188 112.980469 33.65625 106.964844 M 76.191406 105.675781 L 85.984375 100.007812 C 88.5625 104.21875 91.914062 107.308594 97.84375 107.308594 C 102.828125 107.308594 106.003906 104.816406 106.003906 101.382812 C 106.003906 97.257812 102.738281 95.796875 97.242188 93.390625 L 94.234375 92.101562 C 85.554688 88.40625 79.800781 83.765625 79.800781 73.972656 C 79.800781 64.949219 86.671875 58.078125 97.414062 58.078125 C 105.058594 58.078125 110.558594 60.742188 114.511719 67.699219 L 105.144531 73.714844 C 103.082031 70.019531 100.847656 68.558594 97.414062 68.558594 C 93.890625 68.558594 91.65625 70.792969 91.65625 73.714844 C 91.65625 77.324219 93.890625 78.785156 99.042969 81.019531 L 102.050781 82.308594 C 112.277344 86.691406 118.03125 91.15625 118.03125 101.210938 C 118.03125 112.035156 109.527344 117.964844 98.097656 117.964844 C 86.929688 117.964844 79.710938 112.636719 76.191406 105.675781 "/>
</g>
</svg>
