<?xml version="1.0" encoding="UTF-8"?>
<svg xmlns="http://www.w3.org/2000/svg" xmlns:xlink="http://www.w3.org/1999/xlink" width="128px" height="px" viewBox="0 0 128 128" version="1.1">
<g id="surface1">
<path style=" stroke:none;fill-rule:evenodd;fill:rgb(80%,40%,60%);fill-opacity:1;" d="M 64 8 C 94.929688 8 120 33.070312 120 64 C 120 94.929688 94.929688 120 64 120 C 33.070312 120 8 94.929688 8 64 C 8 33.070312 33.070312 8 64 8 Z M 64 8 "/>
<path style=" stroke:none;fill-rule:nonzero;fill:rgb(100%,100%,100%);fill-opacity:1;" d="M 99.128906 31.96875 C 96.59375 22.023438 80.101562 18.769531 64.492188 24.296875 C 54.71875 27.582031 45.6875 32.761719 37.914062 39.539062 C 29.320312 47.578125 27.949219 54.578125 28.511719 57.503906 C 30.511719 67.824219 44.644531 74.566406 50.457031 79.570312 L 50.457031 79.601562 C 48.742188 80.445312 36.199219 86.800781 33.257812 93.28125 C 30.160156 100.128906 33.746094 105.039062 36.128906 105.699219 C 43.453125 107.464844 51.089844 104.367188 55.121094 98 C 58.414062 92.898438 59.113281 86.542969 57.007812 80.847656 C 59.808594 80.136719 62.71875 79.96875 65.578125 80.355469 C 75.402344 81.503906 77.332031 87.636719 76.964844 90.203125 C 76.613281 92.054688 75.476562 93.660156 73.847656 94.605469 C 73.160156 95.03125 72.949219 95.175781 73.007812 95.496094 C 73.09375 95.957031 73.40625 95.941406 73.996094 95.839844 C 77.019531 94.886719 79.140625 92.175781 79.339844 89.011719 C 79.574219 83.011719 73.8125 76.269531 63.605469 76.441406 C 60.640625 76.355469 57.679688 76.761719 54.847656 77.640625 C 54.707031 77.480469 54.5625 77.320312 54.414062 77.160156 C 48.105469 70.429688 36.441406 65.664062 36.933594 56.613281 C 37.113281 53.320312 38.257812 44.65625 59.332031 34.144531 C 76.613281 25.53125 90.445312 27.902344 92.835938 33.15625 C 96.253906 40.660156 85.445312 54.601562 67.5 56.613281 C 63.484375 57.425781 59.3125 56.371094 56.167969 53.738281 C 55.222656 52.699219 55.085938 52.65625 54.730469 52.847656 C 54.160156 53.164062 54.523438 54.085938 54.730469 54.628906 C 56.121094 57.128906 58.457031 58.964844 61.214844 59.722656 C 68.269531 61.257812 75.628906 60.527344 82.246094 57.644531 C 93.132812 53.449219 101.621094 41.746094 99.128906 31.96875 Z M 52.871094 82.652344 C 53.667969 85.390625 53.625 88.304688 52.757812 91.019531 C 52.664062 91.300781 52.558594 91.582031 52.449219 91.859375 C 52.335938 92.136719 52.214844 92.402344 52.085938 92.660156 C 51.410156 94.039062 50.539062 95.308594 49.496094 96.433594 C 46.242188 99.980469 41.695312 101.324219 39.746094 100.191406 C 37.644531 98.972656 38.695312 93.96875 42.46875 89.980469 C 45.367188 87.113281 48.707031 84.734375 52.363281 82.933594 Z M 52.871094 82.652344 "/>
</g>
</svg>
